G04*
G04 #@! TF.GenerationSoftware,Altium Limited,Altium Designer,20.2.6 (244)*
G04*
G04 Layer_Color=16711935*
%FSLAX25Y25*%
%MOIN*%
G70*
G04*
G04 #@! TF.SameCoordinates,3BEAAA9E-F05A-440F-9624-ADC4F11FC2D3*
G04*
G04*
G04 #@! TF.FilePolarity,Positive*
G04*
G01*
G75*
%ADD10C,0.01000*%
%ADD11C,0.00787*%
%ADD12C,0.00394*%
%ADD26C,0.00197*%
D10*
X30909Y-16989D02*
X30586Y-16090D01*
X29933Y-15393D01*
X29057Y-15011D01*
X28101Y-15008D01*
X27223Y-15383D01*
X26565Y-16076D01*
X26235Y-16972D01*
X26287Y-17926D01*
X26713Y-18782D01*
X27443Y-19398D01*
X28357Y-19675D01*
D11*
X35547Y-45906D02*
Y-40000D01*
Y-45906D02*
X56453D01*
Y-34095D01*
X35547D02*
X56453D01*
X35547Y-40000D02*
Y-34095D01*
X56642Y-41890D02*
X74358D01*
X56642D02*
Y-8425D01*
X74358D01*
Y-41890D02*
Y-8425D01*
X28571Y-33071D02*
Y-17323D01*
X51799D01*
Y-33071D02*
Y-17323D01*
X28571Y-33071D02*
X51799D01*
X6642Y-8110D02*
X24358D01*
Y-41575D02*
Y-8110D01*
X6642Y-41575D02*
X24358D01*
X6642D02*
Y-8110D01*
D12*
X72980Y-38346D02*
Y-35886D01*
X72488Y-35394D01*
X71504D01*
X71013Y-35886D01*
Y-38346D01*
X68061Y-35394D02*
X70029D01*
X68061Y-37362D01*
Y-37854D01*
X68553Y-38346D01*
X69537D01*
X70029Y-37854D01*
X30539Y-20277D02*
Y-22736D01*
X31031Y-23228D01*
X32015D01*
X32507Y-22736D01*
Y-20277D01*
X33491Y-20768D02*
X33983Y-20277D01*
X34967D01*
X35459Y-20768D01*
Y-21260D01*
X34967Y-21752D01*
X34475D01*
X34967D01*
X35459Y-22244D01*
Y-22736D01*
X34967Y-23228D01*
X33983D01*
X33491Y-22736D01*
X8020Y-11654D02*
Y-14114D01*
X8512Y-14606D01*
X9496D01*
X9988Y-14114D01*
Y-11654D01*
X10971Y-14606D02*
X11955D01*
X11463D01*
Y-11654D01*
X10971Y-12146D01*
D26*
X54413Y-36915D02*
X54741Y-37243D01*
X55396D01*
X55724Y-36915D01*
Y-35604D01*
X55396Y-35276D01*
X54741D01*
X54413Y-35604D01*
X53757Y-35276D02*
X53101D01*
X53429D01*
Y-37243D01*
X53757Y-36915D01*
M02*
