G04*
G04 #@! TF.GenerationSoftware,Altium Limited,Altium Designer,20.2.6 (244)*
G04*
G04 Layer_Color=65535*
%FSLAX25Y25*%
%MOIN*%
G70*
G04*
G04 #@! TF.SameCoordinates,3BEAAA9E-F05A-440F-9624-ADC4F11FC2D3*
G04*
G04*
G04 #@! TF.FilePolarity,Positive*
G04*
G01*
G75*
%ADD10C,0.01000*%
%ADD11C,0.00787*%
%ADD12C,0.00394*%
%ADD13C,0.00200*%
%ADD14C,0.00300*%
%ADD15C,0.00700*%
D10*
X30909Y-16989D02*
X30586Y-16090D01*
X29933Y-15393D01*
X29057Y-15011D01*
X28101Y-15008D01*
X27223Y-15383D01*
X26565Y-16076D01*
X26235Y-16972D01*
X26287Y-17926D01*
X26713Y-18782D01*
X27443Y-19398D01*
X28357Y-19675D01*
D11*
X35547Y-45906D02*
Y-40000D01*
Y-45906D02*
X56453D01*
Y-34095D01*
X35547D02*
X56453D01*
X35547Y-40000D02*
Y-34095D01*
X56642Y-41890D02*
X74358D01*
X56642D02*
Y-8425D01*
X74358D01*
Y-41890D02*
Y-8425D01*
X28571Y-33071D02*
Y-17323D01*
X51799D01*
Y-33071D02*
Y-17323D01*
X28571Y-33071D02*
X51799D01*
X6642Y-8110D02*
X24358D01*
Y-41575D02*
Y-8110D01*
X6642Y-41575D02*
X24358D01*
X6642D02*
Y-8110D01*
D12*
X34000Y-14000D02*
X35000Y-13000D01*
X33500Y-14000D02*
X34000D01*
X32000Y-13000D02*
X33000Y-14000D01*
X33500D01*
Y-8500D01*
X28894Y-7106D02*
Y-5107D01*
X29893D01*
X30227Y-5440D01*
Y-6107D01*
X29893Y-6440D01*
X28894D01*
X30893Y-7106D02*
X31560D01*
X31226D01*
Y-5773D01*
X30893D01*
X32559Y-7106D02*
Y-5773D01*
X33559D01*
X33892Y-6107D01*
Y-7106D01*
X36558D02*
X37224D01*
X36891D01*
Y-5107D01*
X36558Y-5440D01*
X61870Y-46106D02*
Y-43154D01*
X60394Y-44630D01*
X62362D01*
X65313Y-43646D02*
X64821Y-43154D01*
X63837D01*
X63345Y-43646D01*
Y-44138D01*
X63837Y-44630D01*
X64821D01*
X65313Y-45122D01*
Y-45614D01*
X64821Y-46106D01*
X63837D01*
X63345Y-45614D01*
X68265Y-43154D02*
X66297D01*
Y-46106D01*
X68265D01*
X66297Y-44630D02*
X67281D01*
X69249Y-43154D02*
X71217D01*
X70233D01*
Y-46106D01*
X78346Y-22162D02*
Y-20194D01*
X76870D01*
X77362Y-21178D01*
Y-21670D01*
X76870Y-22162D01*
X75886D01*
X75394Y-21670D01*
Y-20686D01*
X75886Y-20194D01*
X78346Y-23145D02*
X76378D01*
X75394Y-24129D01*
X76378Y-25113D01*
X78346D01*
Y-26097D02*
X75394D01*
Y-27573D01*
X75886Y-28065D01*
X77854D01*
X78346Y-27573D01*
Y-26097D01*
Y-29049D02*
X75394D01*
Y-30525D01*
X75886Y-31017D01*
X77854D01*
X78346Y-30525D01*
Y-29049D01*
X63362Y-3655D02*
X62378Y-4146D01*
X61394Y-5130D01*
Y-6114D01*
X61886Y-6606D01*
X62870D01*
X63362Y-6114D01*
Y-5622D01*
X62870Y-5130D01*
X61394D01*
X65821Y-3655D02*
X64837D01*
X64346Y-4146D01*
Y-6114D01*
X64837Y-6606D01*
X65821D01*
X66313Y-6114D01*
Y-4146D01*
X65821Y-3655D01*
X67297D02*
Y-5622D01*
X68281Y-6606D01*
X69265Y-5622D01*
Y-3655D01*
X7394Y-43646D02*
X7886Y-43154D01*
X8870D01*
X9362Y-43646D01*
Y-44138D01*
X8870Y-44630D01*
X8378D01*
X8870D01*
X9362Y-45122D01*
Y-45614D01*
X8870Y-46106D01*
X7886D01*
X7394Y-45614D01*
X12313Y-43646D02*
X11821Y-43154D01*
X10837D01*
X10345Y-43646D01*
Y-44138D01*
X10837Y-44630D01*
X11821D01*
X12313Y-45122D01*
Y-45614D01*
X11821Y-46106D01*
X10837D01*
X10345Y-45614D01*
X15265Y-43154D02*
X13297D01*
Y-46106D01*
X15265D01*
X13297Y-44630D02*
X14281D01*
X16249Y-46106D02*
Y-43154D01*
X18217Y-46106D01*
Y-43154D01*
X21169Y-43646D02*
X20677Y-43154D01*
X19693D01*
X19201Y-43646D01*
Y-44138D01*
X19693Y-44630D01*
X20677D01*
X21169Y-45122D01*
Y-45614D01*
X20677Y-46106D01*
X19693D01*
X19201Y-45614D01*
X24121Y-43154D02*
X22153D01*
Y-46106D01*
X24121D01*
X22153Y-44630D02*
X23137D01*
X5106Y-28638D02*
Y-30606D01*
X3138Y-28638D01*
X2647D01*
X2155Y-29130D01*
Y-30114D01*
X2647Y-30606D01*
Y-25687D02*
X2155Y-26179D01*
Y-27163D01*
X2647Y-27654D01*
X4614D01*
X5106Y-27163D01*
Y-26179D01*
X4614Y-25687D01*
X3630D01*
Y-26671D01*
X5106Y-24703D02*
X2155D01*
X5106Y-22735D01*
X2155D01*
Y-21751D02*
X5106D01*
Y-20275D01*
X4614Y-19783D01*
X2647D01*
X2155Y-20275D01*
Y-21751D01*
X11894Y-6106D02*
X12878D01*
X12386D01*
Y-3154D01*
X11894Y-3647D01*
X14354Y-3154D02*
Y-5614D01*
X14845Y-6106D01*
X15829D01*
X16321Y-5614D01*
Y-3154D01*
X17305D02*
Y-5122D01*
X18289Y-6106D01*
X19273Y-5122D01*
Y-3154D01*
D13*
X47333Y-32000D02*
X47500Y-31833D01*
Y-31500D01*
X47333Y-31334D01*
X46667D01*
X46500Y-31500D01*
Y-31833D01*
X46667Y-32000D01*
X46500Y-32333D02*
Y-32667D01*
Y-32500D01*
X47500D01*
X47333Y-32333D01*
X7200Y-47800D02*
Y-48800D01*
Y-48300D01*
X7367Y-48134D01*
X7700D01*
X7867Y-48300D01*
Y-48800D01*
X8699D02*
X8366D01*
X8200Y-48633D01*
Y-48300D01*
X8366Y-48134D01*
X8699D01*
X8866Y-48300D01*
Y-48467D01*
X8200D01*
X9366Y-48134D02*
X9699D01*
X9866Y-48300D01*
Y-48800D01*
X9366D01*
X9199Y-48633D01*
X9366Y-48467D01*
X9866D01*
X10865Y-47800D02*
Y-48800D01*
X10366D01*
X10199Y-48633D01*
Y-48300D01*
X10366Y-48134D01*
X10865D01*
X11699Y-48800D02*
X11365D01*
X11199Y-48633D01*
Y-48300D01*
X11365Y-48134D01*
X11699D01*
X11865Y-48300D01*
Y-48467D01*
X11199D01*
X12198Y-48134D02*
Y-48800D01*
Y-48467D01*
X12365Y-48300D01*
X12532Y-48134D01*
X12698D01*
X13198Y-48300D02*
X13864D01*
X14198Y-47800D02*
Y-48800D01*
Y-48300D01*
X14364Y-48134D01*
X14698D01*
X14864Y-48300D01*
Y-48800D01*
X15697D02*
X15364D01*
X15197Y-48633D01*
Y-48300D01*
X15364Y-48134D01*
X15697D01*
X15864Y-48300D01*
Y-48467D01*
X15197D01*
X16364Y-48134D02*
X16697D01*
X16864Y-48300D01*
Y-48800D01*
X16364D01*
X16197Y-48633D01*
X16364Y-48467D01*
X16864D01*
X17863Y-47800D02*
Y-48800D01*
X17363D01*
X17197Y-48633D01*
Y-48300D01*
X17363Y-48134D01*
X17863D01*
X18696Y-48800D02*
X18363D01*
X18196Y-48633D01*
Y-48300D01*
X18363Y-48134D01*
X18696D01*
X18863Y-48300D01*
Y-48467D01*
X18196D01*
X19196Y-48134D02*
Y-48800D01*
Y-48467D01*
X19363Y-48300D01*
X19529Y-48134D01*
X19696D01*
X21862Y-47800D02*
Y-48800D01*
X21362D01*
X21195Y-48633D01*
Y-48300D01*
X21362Y-48134D01*
X21862D01*
X22195Y-48800D02*
X22528D01*
X22362D01*
Y-48134D01*
X22195D01*
X23028Y-48800D02*
X23528D01*
X23695Y-48633D01*
X23528Y-48467D01*
X23195D01*
X23028Y-48300D01*
X23195Y-48134D01*
X23695D01*
X24195Y-47967D02*
Y-48134D01*
X24028D01*
X24361D01*
X24195D01*
Y-48633D01*
X24361Y-48800D01*
X25028Y-48134D02*
X25361D01*
X25527Y-48300D01*
Y-48800D01*
X25028D01*
X24861Y-48633D01*
X25028Y-48467D01*
X25527D01*
X25861Y-48800D02*
Y-48134D01*
X26360D01*
X26527Y-48300D01*
Y-48800D01*
X27527Y-48134D02*
X27027D01*
X26860Y-48300D01*
Y-48633D01*
X27027Y-48800D01*
X27527D01*
X28360D02*
X28027D01*
X27860Y-48633D01*
Y-48300D01*
X28027Y-48134D01*
X28360D01*
X28526Y-48300D01*
Y-48467D01*
X27860D01*
X28860D02*
X29526D01*
X28860Y-48134D02*
X29526D01*
X29859Y-47967D02*
X30026Y-47800D01*
X30359D01*
X30526Y-47967D01*
Y-48633D01*
X30359Y-48800D01*
X30026D01*
X29859Y-48633D01*
Y-47967D01*
X30859Y-48800D02*
Y-48633D01*
X31026D01*
Y-48800D01*
X30859D01*
X32359Y-47800D02*
X31692D01*
Y-48300D01*
X32025Y-48134D01*
X32192D01*
X32359Y-48300D01*
Y-48633D01*
X32192Y-48800D01*
X31859D01*
X31692Y-48633D01*
X32692Y-48800D02*
X33025D01*
X32858D01*
Y-48134D01*
X32692D01*
X33525Y-48800D02*
Y-48134D01*
X34025D01*
X34191Y-48300D01*
Y-48800D01*
D14*
X35300Y-2200D02*
Y-3700D01*
X36050D01*
X36300Y-3450D01*
Y-3200D01*
X36050Y-2950D01*
X35300D01*
X36050D01*
X36300Y-2700D01*
Y-2450D01*
X36050Y-2200D01*
X35300D01*
X36799Y-2700D02*
Y-3700D01*
Y-3200D01*
X37049Y-2950D01*
X37299Y-2700D01*
X37549D01*
X39049Y-3700D02*
X38549D01*
X38299Y-3450D01*
Y-2950D01*
X38549Y-2700D01*
X39049D01*
X39299Y-2950D01*
Y-3200D01*
X38299D01*
X40049Y-2700D02*
X40548D01*
X40798Y-2950D01*
Y-3700D01*
X40049D01*
X39799Y-3450D01*
X40049Y-3200D01*
X40798D01*
X41298Y-3700D02*
Y-2200D01*
Y-3200D02*
X42048Y-2700D01*
X41298Y-3200D02*
X42048Y-3700D01*
X43047D02*
X43547D01*
X43797Y-3450D01*
Y-2950D01*
X43547Y-2700D01*
X43047D01*
X42798Y-2950D01*
Y-3450D01*
X43047Y-3700D01*
X44297Y-2700D02*
Y-3450D01*
X44547Y-3700D01*
X45297D01*
Y-2700D01*
X46047Y-2450D02*
Y-2700D01*
X45797D01*
X46297D01*
X46047D01*
Y-3450D01*
X46297Y-3700D01*
X48546Y-2200D02*
Y-3700D01*
X49295D01*
X49545Y-3450D01*
Y-3200D01*
X49295Y-2950D01*
X48546D01*
X49295D01*
X49545Y-2700D01*
Y-2450D01*
X49295Y-2200D01*
X48546D01*
X50295Y-3700D02*
X50795D01*
X51045Y-3450D01*
Y-2950D01*
X50795Y-2700D01*
X50295D01*
X50045Y-2950D01*
Y-3450D01*
X50295Y-3700D01*
X51795Y-2700D02*
X52295D01*
X52544Y-2950D01*
Y-3700D01*
X51795D01*
X51545Y-3450D01*
X51795Y-3200D01*
X52544D01*
X53044Y-2700D02*
Y-3700D01*
Y-3200D01*
X53294Y-2950D01*
X53544Y-2700D01*
X53794D01*
X55544Y-2200D02*
Y-3700D01*
X54794D01*
X54544Y-3450D01*
Y-2950D01*
X54794Y-2700D01*
X55544D01*
X23300Y-2200D02*
X24300D01*
X23800D01*
Y-3700D01*
X24800D02*
Y-2200D01*
X25549D01*
X25799Y-2450D01*
Y-2950D01*
X25549Y-3200D01*
X24800D01*
X27299Y-2450D02*
X27049Y-2200D01*
X26549D01*
X26299Y-2450D01*
Y-2700D01*
X26549Y-2950D01*
X27049D01*
X27299Y-3200D01*
Y-3450D01*
X27049Y-3700D01*
X26549D01*
X26299Y-3450D01*
X27799Y-2450D02*
X28049Y-2200D01*
X28548D01*
X28798Y-2450D01*
Y-2700D01*
X28548Y-2950D01*
X28298D01*
X28548D01*
X28798Y-3200D01*
Y-3450D01*
X28548Y-3700D01*
X28049D01*
X27799Y-3450D01*
X29298Y-2200D02*
X30298D01*
Y-2450D01*
X29298Y-3450D01*
Y-3700D01*
X30798Y-2450D02*
X31047Y-2200D01*
X31547D01*
X31797Y-2450D01*
Y-3450D01*
X31547Y-3700D01*
X31047D01*
X30798Y-3450D01*
Y-2450D01*
X33297Y-3700D02*
X32297D01*
X33297Y-2700D01*
Y-2450D01*
X33047Y-2200D01*
X32547D01*
X32297Y-2450D01*
D15*
X50001Y-8000D02*
Y-10500D01*
X50501Y-11000D01*
X51500D01*
X52000Y-10500D01*
Y-8000D01*
X54999Y-11000D02*
X53000D01*
X54999Y-9000D01*
Y-8500D01*
X54499Y-8000D01*
X53500D01*
X53000Y-8500D01*
X37501Y-12501D02*
Y-15000D01*
X38001Y-15499D01*
X39000D01*
X39500Y-15000D01*
Y-12501D01*
X40500Y-13000D02*
X41000Y-12501D01*
X41999D01*
X42499Y-13000D01*
Y-13500D01*
X41999Y-14000D01*
X41500D01*
X41999D01*
X42499Y-14500D01*
Y-15000D01*
X41999Y-15499D01*
X41000D01*
X40500Y-15000D01*
X26001Y-8501D02*
Y-11000D01*
X26500Y-11500D01*
X27500D01*
X28000Y-11000D01*
Y-8501D01*
X29000Y-11500D02*
X29999D01*
X29500D01*
Y-8501D01*
X29000Y-9000D01*
M02*
