G04*
G04 #@! TF.GenerationSoftware,Altium Limited,Altium Designer,20.2.6 (244)*
G04*
G04 Layer_Physical_Order=2*
G04 Layer_Color=16711680*
%FSLAX25Y25*%
%MOIN*%
G70*
G04*
G04 #@! TF.SameCoordinates,3BEAAA9E-F05A-440F-9624-ADC4F11FC2D3*
G04*
G04*
G04 #@! TF.FilePolarity,Positive*
G04*
G01*
G75*
%ADD23C,0.05906*%
%ADD24C,0.07874*%
%ADD25R,0.07874X0.07874*%
G36*
X77000Y-47000D02*
X3000D01*
Y-3000D01*
X77000D01*
Y-47000D01*
D02*
G37*
%LPC*%
G36*
X20437Y-10063D02*
X10563D01*
Y-19937D01*
X13516D01*
X13615Y-20437D01*
X13010Y-20687D01*
X11979Y-21479D01*
X11187Y-22510D01*
X10690Y-23711D01*
X10586Y-24500D01*
X20414D01*
X20310Y-23711D01*
X19813Y-22510D01*
X19021Y-21479D01*
X17990Y-20687D01*
X17385Y-20437D01*
X17484Y-19937D01*
X20437D01*
Y-10063D01*
D02*
G37*
G36*
X41500Y-36079D02*
Y-39500D01*
X44921D01*
X44851Y-38968D01*
X44453Y-38007D01*
X43819Y-37181D01*
X42993Y-36547D01*
X42032Y-36149D01*
X41500Y-36079D01*
D02*
G37*
G36*
X40500D02*
X39968Y-36149D01*
X39007Y-36547D01*
X38181Y-37181D01*
X37547Y-38007D01*
X37149Y-38968D01*
X37079Y-39500D01*
X40500D01*
Y-36079D01*
D02*
G37*
G36*
X65500Y-10020D02*
X64211Y-10190D01*
X63010Y-10688D01*
X61979Y-11479D01*
X61187Y-12510D01*
X60690Y-13711D01*
X60520Y-15000D01*
X60690Y-16289D01*
X61187Y-17490D01*
X61979Y-18521D01*
X63010Y-19312D01*
X64017Y-19729D01*
Y-20271D01*
X63010Y-20687D01*
X61979Y-21479D01*
X61187Y-22510D01*
X60690Y-23711D01*
X60520Y-25000D01*
X60690Y-26289D01*
X61187Y-27490D01*
X61979Y-28521D01*
X63010Y-29313D01*
X63615Y-29563D01*
X63516Y-30063D01*
X60563D01*
Y-39937D01*
X70437D01*
Y-30063D01*
X67484D01*
X67385Y-29563D01*
X67990Y-29313D01*
X69021Y-28521D01*
X69813Y-27490D01*
X70310Y-26289D01*
X70480Y-25000D01*
X70310Y-23711D01*
X69813Y-22510D01*
X69021Y-21479D01*
X67990Y-20687D01*
X66983Y-20271D01*
Y-19729D01*
X67990Y-19312D01*
X69021Y-18521D01*
X69813Y-17490D01*
X70310Y-16289D01*
X70480Y-15000D01*
X70310Y-13711D01*
X69813Y-12510D01*
X69021Y-11479D01*
X67990Y-10688D01*
X66789Y-10190D01*
X65500Y-10020D01*
D02*
G37*
G36*
X20414Y-25500D02*
X10586D01*
X10690Y-26289D01*
X11187Y-27490D01*
X11979Y-28521D01*
X13010Y-29313D01*
X14017Y-29729D01*
Y-30271D01*
X13010Y-30687D01*
X11979Y-31479D01*
X11187Y-32510D01*
X10690Y-33711D01*
X10520Y-35000D01*
X10690Y-36289D01*
X11187Y-37490D01*
X11979Y-38521D01*
X13010Y-39312D01*
X14211Y-39810D01*
X15500Y-39980D01*
X16789Y-39810D01*
X17990Y-39312D01*
X19021Y-38521D01*
X19813Y-37490D01*
X20310Y-36289D01*
X20480Y-35000D01*
X20310Y-33711D01*
X19813Y-32510D01*
X19021Y-31479D01*
X17990Y-30687D01*
X16983Y-30271D01*
Y-29729D01*
X17990Y-29313D01*
X19021Y-28521D01*
X19813Y-27490D01*
X20310Y-26289D01*
X20414Y-25500D01*
D02*
G37*
G36*
X44921Y-40500D02*
X41500D01*
Y-43921D01*
X42032Y-43851D01*
X42993Y-43453D01*
X43819Y-42819D01*
X44453Y-41993D01*
X44851Y-41032D01*
X44921Y-40500D01*
D02*
G37*
G36*
X40500D02*
X37079D01*
X37149Y-41032D01*
X37547Y-41993D01*
X38181Y-42819D01*
X39007Y-43453D01*
X39968Y-43851D01*
X40500Y-43921D01*
Y-40500D01*
D02*
G37*
G36*
X51000Y-36013D02*
X49968Y-36149D01*
X49007Y-36547D01*
X48181Y-37181D01*
X47547Y-38007D01*
X47149Y-38968D01*
X47013Y-40000D01*
X47149Y-41032D01*
X47547Y-41993D01*
X48181Y-42819D01*
X49007Y-43453D01*
X49968Y-43851D01*
X51000Y-43987D01*
X52032Y-43851D01*
X52993Y-43453D01*
X53819Y-42819D01*
X54453Y-41993D01*
X54851Y-41032D01*
X54987Y-40000D01*
X54851Y-38968D01*
X54453Y-38007D01*
X53819Y-37181D01*
X52993Y-36547D01*
X52032Y-36149D01*
X51000Y-36013D01*
D02*
G37*
%LPD*%
D23*
Y-40000D02*
D03*
X41000D02*
D03*
D24*
X65500Y-25000D02*
D03*
Y-15000D02*
D03*
X15500Y-25000D02*
D03*
Y-35000D02*
D03*
D25*
X65500D02*
D03*
X15500Y-15000D02*
D03*
M02*
